<?xml version="1.0" encoding="UTF-8" standalone="no"?>
<!-- Created with Inkscape (http://www.inkscape.org/) -->

<svg
   width="48"
   height="48"
   viewBox="0 0 12.7 12.7"
   version="1.1"
   id="svg5"
   inkscape:version="1.1.1 (3bf5ae0d25, 2021-09-20)"
   sodipodi:docname="settings.svg"
   xmlns:inkscape="http://www.inkscape.org/namespaces/inkscape"
   xmlns:sodipodi="http://sodipodi.sourceforge.net/DTD/sodipodi-0.dtd"
   xmlns="http://www.w3.org/2000/svg"
   xmlns:svg="http://www.w3.org/2000/svg">
  <sodipodi:namedview
     id="namedview7"
     pagecolor="#ffffff"
     bordercolor="#666666"
     borderopacity="1.0"
     inkscape:pageshadow="2"
     inkscape:pageopacity="0.0"
     inkscape:pagecheckerboard="0"
     inkscape:document-units="mm"
     showgrid="false"
     units="px"
     width="48px"
     inkscape:zoom="5.1241863"
     inkscape:cx="7.708541"
     inkscape:cy="59.033763"
     inkscape:window-width="1920"
     inkscape:window-height="1137"
     inkscape:window-x="-8"
     inkscape:window-y="-8"
     inkscape:window-maximized="1"
     inkscape:current-layer="g3071" />
  <defs
     id="defs2" />
  <g
     inkscape:label="Réteg 1"
     inkscape:groupmode="layer"
     id="layer1">
    <g
       id="g880"
       transform="matrix(0.01663871,0,0,0.01663871,2.3278007,2.4310741)">
      <g
         id="g828">
</g>
      <g
         id="g830">
</g>
      <g
         id="g832">
</g>
      <g
         id="g834">
</g>
      <g
         id="g836">
</g>
      <g
         id="g838">
</g>
      <g
         id="g840">
</g>
      <g
         id="g842">
</g>
      <g
         id="g844">
</g>
      <g
         id="g846">
</g>
      <g
         id="g848">
</g>
      <g
         id="g850">
</g>
      <g
         id="g852">
</g>
      <g
         id="g854">
</g>
      <g
         id="g856">
</g>
      <g
         id="g3071"
         transform="matrix(1.1679424,0,0,1.1679424,-26.828686,-29.932245)">
        <g
           id="XMLID_1055_">
	<g
   id="g3015">
		<path
   d="M 230,0 C 102.975,0 0,102.975 0,230 0,357.025 102.975,460 230,460 357.025,460 460,357.026 460,230 460,102.974 357.025,0 230,0 Z m 38.333,377.36 c 0,8.676 -7.034,15.71 -15.71,15.71 h -43.101 c -8.676,0 -15.71,-7.034 -15.71,-15.71 V 202.477 c 0,-8.676 7.033,-15.71 15.71,-15.71 h 43.101 c 8.676,0 15.71,7.033 15.71,15.71 z M 230,157 c -21.539,0 -39,-17.461 -39,-39 0,-21.539 17.461,-39 39,-39 21.539,0 39,17.461 39,39 0,21.539 -17.461,39 -39,39 z"
   id="path3013"
   style="fill:#005306;fill-opacity:1"
   sodipodi:nodetypes="sssssssssssssssssss" />

	</g>

</g>
        <g
           id="g3018">
</g>
        <g
           id="g3020">
</g>
        <g
           id="g3022">
</g>
        <g
           id="g3024">
</g>
        <g
           id="g3026">
</g>
        <g
           id="g3028">
</g>
        <g
           id="g3030">
</g>
        <g
           id="g3032">
</g>
        <g
           id="g3034">
</g>
        <g
           id="g3036">
</g>
        <g
           id="g3038">
</g>
        <g
           id="g3040">
</g>
        <g
           id="g3042">
</g>
        <g
           id="g3044">
</g>
        <g
           id="g3046">
</g>
      </g>
    </g>
  </g>
</svg>
