<?xml version="1.0" encoding="UTF-8" standalone="no"?>
<!-- Generator: Adobe Illustrator 18.1.1, SVG Export Plug-In . SVG Version: 6.00 Build 0)  -->

<svg
   version="1.1"
   id="Capa_1"
   x="0px"
   y="0px"
   viewBox="0 0 48 48"
   xml:space="preserve"
   sodipodi:docname="database-svgrepo-com.svg"
   width="48"
   height="48"
   inkscape:version="1.1.1 (3bf5ae0d25, 2021-09-20)"
   xmlns:inkscape="http://www.inkscape.org/namespaces/inkscape"
   xmlns:sodipodi="http://sodipodi.sourceforge.net/DTD/sodipodi-0.dtd"
   xmlns="http://www.w3.org/2000/svg"
   xmlns:svg="http://www.w3.org/2000/svg"><defs
   id="defs2509" /><sodipodi:namedview
   id="namedview2507"
   pagecolor="#ffffff"
   bordercolor="#666666"
   borderopacity="1.0"
   inkscape:pageshadow="2"
   inkscape:pageopacity="0.0"
   inkscape:pagecheckerboard="0"
   showgrid="false"
   inkscape:zoom="6.1431989"
   inkscape:cx="0.40695411"
   inkscape:cy="32.312156"
   inkscape:window-width="1920"
   inkscape:window-height="1137"
   inkscape:window-x="-8"
   inkscape:window-y="-8"
   inkscape:window-maximized="1"
   inkscape:current-layer="Capa_1" />
<g
   id="g2474"
   transform="matrix(1.0903725,0,0,1.0903725,8.200577,8.4646454)">
	<path
   style="fill:#005306;fill-opacity:1"
   d="m 14.627,15.954 c -5.494,0 -10.098,-1.614 -11.355,-3.79 -0.221,0.383 -0.35,0.781 -0.35,1.194 v 3.561 c 0,2.751 5.242,4.983 11.705,4.983 6.467,0 11.711,-2.232 11.711,-4.983 v -3.561 c 0,-0.413 -0.131,-0.811 -0.354,-1.194 -1.257,2.175 -5.857,3.79 -11.357,3.79 z"
   id="path2466" />
	<path
   style="fill:#005306;fill-opacity:1"
   d="m 14.627,23.31 c -5.494,0 -10.098,-1.616 -11.355,-3.788 -0.221,0.381 -0.35,0.779 -0.35,1.191 v 3.564 c 0,2.752 5.242,4.983 11.705,4.983 6.467,0 11.711,-2.23 11.711,-4.983 v -3.564 c 0,-0.412 -0.131,-0.81 -0.354,-1.19 -1.257,2.171 -5.857,3.787 -11.357,3.787 z"
   id="path2468" />
	<path
   style="fill:#005306;fill-opacity:1"
   d="M 26.018,5.042 C 25.788,7.058 20.786,8.671 14.627,8.671 8.471,8.671 3.469,7.058 3.24,5.043 3.039,5.409 2.922,5.791 2.922,6.184 v 3.561 c 0,2.752 5.242,4.983 11.705,4.983 6.467,0 11.711,-2.23 11.711,-4.983 V 6.184 c 0,-0.393 -0.119,-0.775 -0.32,-1.142 z"
   id="path2470" />
	<path
   style="fill:#005306;fill-opacity:1"
   d="m 14.627,7.541 c 6.303,0 11.41,-1.687 11.41,-3.771 C 26.037,1.688 20.93,0 14.627,0 8.328,0.001 3.219,1.689 3.219,3.771 c 0,2.083 5.109,3.77 11.408,3.77 z"
   id="path2472" />
</g>
<g
   id="g2476">
</g>
<g
   id="g2478">
</g>
<g
   id="g2480">
</g>
<g
   id="g2482">
</g>
<g
   id="g2484">
</g>
<g
   id="g2486">
</g>
<g
   id="g2488">
</g>
<g
   id="g2490">
</g>
<g
   id="g2492">
</g>
<g
   id="g2494">
</g>
<g
   id="g2496">
</g>
<g
   id="g2498">
</g>
<g
   id="g2500">
</g>
<g
   id="g2502">
</g>
<g
   id="g2504">
</g>
</svg>
