<?xml version="1.0" encoding="UTF-8" standalone="no"?>
<!-- Generator: Adobe Illustrator 19.0.0, SVG Export Plug-In . SVG Version: 6.00 Build 0)  -->

<svg
   version="1.1"
   id="Layer_1"
   x="0px"
   y="0px"
   viewBox="0 0 32 32"
   xml:space="preserve"
   sodipodi:docname="rotate.svg"
   width="32"
   height="32"
   inkscape:version="1.1.1 (3bf5ae0d25, 2021-09-20)"
   xmlns:inkscape="http://www.inkscape.org/namespaces/inkscape"
   xmlns:sodipodi="http://sodipodi.sourceforge.net/DTD/sodipodi-0.dtd"
   xmlns="http://www.w3.org/2000/svg"
   xmlns:svg="http://www.w3.org/2000/svg"><defs
   id="defs912" /><sodipodi:namedview
   id="namedview910"
   pagecolor="#ffffff"
   bordercolor="#666666"
   borderopacity="1.0"
   inkscape:pageshadow="2"
   inkscape:pageopacity="0.0"
   inkscape:pagecheckerboard="0"
   showgrid="false"
   inkscape:zoom="5.0992172"
   inkscape:cx="-23.042753"
   inkscape:cy="31.083202"
   inkscape:window-width="1920"
   inkscape:window-height="1137"
   inkscape:window-x="-8"
   inkscape:window-y="-8"
   inkscape:window-maximized="1"
   inkscape:current-layer="g877" />
<g
   id="g877"
   transform="matrix(0.04018426,0,0,0.04018426,2.1493799,2.395549)">
	<g
   id="g875"
   transform="matrix(1.4369948,0,0,1.4369948,0,-0.04894342)">
		<g
   id="g873">
			<path
   d="m 464.9,284.408 c 0.053,0 0.105,0.004 0.157,0.004 h 0.055 z"
   id="path869" />
			<path
   d="m 484.004,292.48 c -5.063,-5.086 -11.821,-8.025 -18.947,-8.068 H 330.468 c -14.824,0 -26.676,12.3 -26.676,27.12 v 22.78 c 0,7.156 2.7,13.9 7.788,18.992 5.088,5.092 11.784,7.896 18.94,7.896 l 39.052,0.008 c -32.06,34.332 -76.68,53.864 -123.672,53.864 -93.22,0 -169.072,-75.844 -169.072,-169.072 0,-93.228 75.84,-169.072 169.064,-169.072 69.796,0 133.336,43.82 158.108,109.04 5.632,14.816 20.068,24.776 35.916,24.776 4.66,0 9.248,-0.848 13.632,-2.52 19.8,-7.516 29.784,-29.748 22.26,-49.544 C 439.772,63.84 347.376,0.112 245.888,0.112 110.308,0.112 0,110.416 0,246 c 0,135.584 110.236,245.888 245.816,245.888 62.584,0 123.272,-24.632 169.364,-67.872 v 21.788 c 0,14.824 12.208,26.812 27.032,26.812 h 22.78 c 14.824,0 27.008,-11.988 27.008,-26.812 v -134.18 c 0,-7.18 -2.884,-14.06 -7.996,-19.144 z"
   id="path871"
   style="fill:#460076;fill-opacity:1" />
		</g>
	</g>
</g>
<g
   id="g879">
</g>
<g
   id="g881">
</g>
<g
   id="g883">
</g>
<g
   id="g885">
</g>
<g
   id="g887">
</g>
<g
   id="g889">
</g>
<g
   id="g891">
</g>
<g
   id="g893">
</g>
<g
   id="g895">
</g>
<g
   id="g897">
</g>
<g
   id="g899">
</g>
<g
   id="g901">
</g>
<g
   id="g903">
</g>
<g
   id="g905">
</g>
<g
   id="g907">
</g>
</svg>
