<?xml version="1.0" encoding="UTF-8" standalone="no"?>
<!-- Created with Inkscape (http://www.inkscape.org/) -->

<svg
   width="48"
   height="48"
   viewBox="0 0 12.7 12.7"
   version="1.1"
   id="svg5"
   inkscape:version="1.1.1 (3bf5ae0d25, 2021-09-20)"
   xmlns:inkscape="http://www.inkscape.org/namespaces/inkscape"
   xmlns:sodipodi="http://sodipodi.sourceforge.net/DTD/sodipodi-0.dtd"
   xmlns="http://www.w3.org/2000/svg"
   xmlns:svg="http://www.w3.org/2000/svg">
  <sodipodi:namedview
     id="namedview7"
     pagecolor="#ffffff"
     bordercolor="#666666"
     borderopacity="1.0"
     inkscape:pageshadow="2"
     inkscape:pageopacity="0.0"
     inkscape:pagecheckerboard="0"
     inkscape:document-units="mm"
     showgrid="false"
     units="px"
     inkscape:zoom="5.1241863"
     inkscape:cx="52.008257"
     inkscape:cy="42.055458"
     inkscape:window-width="1920"
     inkscape:window-height="1137"
     inkscape:window-x="-8"
     inkscape:window-y="-8"
     inkscape:window-maximized="1"
     inkscape:current-layer="g886" />
  <defs
     id="defs2" />
  <g
     inkscape:label="Réteg 1"
     inkscape:groupmode="layer"
     id="layer1">
    <g
       id="g886"
       transform="matrix(0.01814201,0,0,0.01814201,2.6840569,2.6324226)"
       style="fill:#008000">
      <g
         id="g830"
         style="fill:#008000">
	<g
   id="g828"
   style="fill:#008000">
		<path
   d="M 402.115,84.008 323.088,4.981 C 319.899,1.792 315.574,0 311.063,0 H 17.005 C 7.613,0 0,7.614 0,17.005 v 373.086 c 0,9.392 7.613,17.005 17.005,17.005 h 373.086 c 9.392,0 17.005,-7.613 17.005,-17.005 V 96.032 c 0,-4.509 -1.791,-8.835 -4.981,-12.024 z M 300.664,163.567 H 67.129 V 38.862 h 233.535 z"
   id="path824"
   style="fill:#005306;fill-opacity:1" />

		<path
   d="m 214.051,148.16 h 43.08 c 3.131,0 5.668,-2.538 5.668,-5.669 V 59.584 c 0,-3.13 -2.537,-5.668 -5.668,-5.668 h -43.08 c -3.131,0 -5.668,2.538 -5.668,5.668 v 82.907 c 0,3.131 2.537,5.669 5.668,5.669 z"
   id="path826"
   style="fill:#005306;fill-opacity:1" />

	</g>

</g>
      <g
         id="g832"
         style="fill:#008000">
</g>
      <g
         id="g834"
         style="fill:#008000">
</g>
      <g
         id="g836"
         style="fill:#008000">
</g>
      <g
         id="g838"
         style="fill:#008000">
</g>
      <g
         id="g840"
         style="fill:#008000">
</g>
      <g
         id="g842"
         style="fill:#008000">
</g>
      <g
         id="g844"
         style="fill:#008000">
</g>
      <g
         id="g846"
         style="fill:#008000">
</g>
      <g
         id="g848"
         style="fill:#008000">
</g>
      <g
         id="g850"
         style="fill:#008000">
</g>
      <g
         id="g852"
         style="fill:#008000">
</g>
      <g
         id="g854"
         style="fill:#008000">
</g>
      <g
         id="g856"
         style="fill:#008000">
</g>
      <g
         id="g858"
         style="fill:#008000">
</g>
      <g
         id="g860"
         style="fill:#008000">
</g>
    </g>
  </g>
</svg>
