<?xml version="1.0" encoding="UTF-8" standalone="no"?>
<!-- Created with Inkscape (http://www.inkscape.org/) -->

<svg
   width="48"
   height="48"
   viewBox="0 0 12.7 12.7"
   version="1.1"
   id="svg5"
   inkscape:version="1.1.1 (3bf5ae0d25, 2021-09-20)"
   sodipodi:docname="settings.svg"
   xmlns:inkscape="http://www.inkscape.org/namespaces/inkscape"
   xmlns:sodipodi="http://sodipodi.sourceforge.net/DTD/sodipodi-0.dtd"
   xmlns="http://www.w3.org/2000/svg"
   xmlns:svg="http://www.w3.org/2000/svg">
  <sodipodi:namedview
     id="namedview7"
     pagecolor="#ffffff"
     bordercolor="#666666"
     borderopacity="1.0"
     inkscape:pageshadow="2"
     inkscape:pageopacity="0.0"
     inkscape:pagecheckerboard="0"
     inkscape:document-units="mm"
     showgrid="false"
     units="px"
     width="48px"
     inkscape:zoom="5.1241863"
     inkscape:cx="-31.712352"
     inkscape:cy="58.448304"
     inkscape:window-width="1920"
     inkscape:window-height="1137"
     inkscape:window-x="-8"
     inkscape:window-y="-8"
     inkscape:window-maximized="1"
     inkscape:current-layer="g880" />
  <defs
     id="defs2" />
  <g
     inkscape:label="Réteg 1"
     inkscape:groupmode="layer"
     id="layer1">
    <g
       id="g880"
       transform="matrix(0.01663871,0,0,0.01663871,2.3278007,2.4310741)">
      <g
         id="g826">
	<path
   d="m 20.701,281.901 32.1,0.2 c 4.8,24.7 14.3,48.7 28.7,70.5 l -22.8,22.6 c -8.2,8.1 -8.2,21.2 -0.2,29.4 l 24.6,24.9 c 8.1,8.2 21.2,8.2 29.4,0.2 l 22.8,-22.6 c 21.6,14.6 45.5,24.5 70.2,29.5 l -0.2,32.1 c -0.1,11.5 9.2,20.8 20.7,20.9 l 35,0.2 c 11.5,0.1 20.8,-9.2 20.9,-20.7 l 0.2,-32.1 c 24.7,-4.8 48.7,-14.3 70.5,-28.7 l 22.6,22.8 c 8.1,8.2 21.2,8.2 29.4,0.2 l 24.9,-24.6 c 8.2,-8.1 8.2,-21.2 0.2,-29.4 l -22.6,-22.8 c 14.6,-21.6 24.5,-45.5 29.5,-70.2 l 32.1,0.2 c 11.5,0.1 20.8,-9.2 20.9,-20.7 l 0.2,-35 c 0.1,-11.5 -9.2,-20.8 -20.7,-20.9 l -32.1,-0.2 c -4.8,-24.7 -14.3,-48.7 -28.7,-70.5 l 22.8,-22.6 c 8.2,-8.1 8.2,-21.2 0.2,-29.4 l -24.6,-24.9 c -8.1,-8.2 -21.2,-8.2 -29.4,-0.2 l -22.8,22.6 c -21.6,-14.6 -45.5,-24.5 -70.2,-29.5 l 0.2,-32.1 c 0.1,-11.5 -9.2,-20.8 -20.7,-20.9 l -35,-0.2 c -11.5,-0.1 -20.8,9.2 -20.9,20.7 l -0.3,32.1 c -24.8,4.8 -48.8,14.3 -70.5,28.7 l -22.6,-22.8 c -8.1,-8.2 -21.2,-8.2 -29.4,-0.2 l -24.8,24.6 c -8.2,8.1 -8.2,21.2 -0.2,29.4 l 22.6,22.8 c -14.6,21.6 -24.5,45.5 -29.5,70.2 l -32.1,-0.2 c -11.5,-0.1 -20.8,9.2 -20.9,20.7 l -0.2,35 c -0.1,11.4 9.2,20.8 20.7,20.9 z m 158.6,-103.3 c 36.6,-36.2 95.5,-35.9 131.7,0.7 36.2,36.6 35.9,95.5 -0.7,131.7 -36.6,36.2 -95.5,35.9 -131.7,-0.7 -36.2,-36.6 -35.9,-95.5 0.7,-131.7 z"
   id="path824"
   style="fill:#005306;fill-opacity:1" />

</g>
      <g
         id="g828">
</g>
      <g
         id="g830">
</g>
      <g
         id="g832">
</g>
      <g
         id="g834">
</g>
      <g
         id="g836">
</g>
      <g
         id="g838">
</g>
      <g
         id="g840">
</g>
      <g
         id="g842">
</g>
      <g
         id="g844">
</g>
      <g
         id="g846">
</g>
      <g
         id="g848">
</g>
      <g
         id="g850">
</g>
      <g
         id="g852">
</g>
      <g
         id="g854">
</g>
      <g
         id="g856">
</g>
    </g>
  </g>
</svg>
