<?xml version="1.0" encoding="UTF-8" standalone="no"?>
<!-- Created with Inkscape (http://www.inkscape.org/) -->

<svg
   width="96"
   height="96"
   viewBox="0 0 25.399999 25.400001"
   version="1.1"
   id="svg5"
   inkscape:version="1.1.1 (3bf5ae0, 2021-09-20)"
   sodipodi:docname="treasure_red.svg"
   xmlns:inkscape="http://www.inkscape.org/namespaces/inkscape"
   xmlns:sodipodi="http://sodipodi.sourceforge.net/DTD/sodipodi-0.dtd"
   xmlns="http://www.w3.org/2000/svg"
   xmlns:svg="http://www.w3.org/2000/svg">
  <sodipodi:namedview
     id="namedview7"
     pagecolor="#ffffff"
     bordercolor="#666666"
     borderopacity="1.0"
     inkscape:pageshadow="2"
     inkscape:pageopacity="0.0"
     inkscape:pagecheckerboard="0"
     inkscape:document-units="mm"
     showgrid="false"
     units="px"
     width="96px"
     inkscape:zoom="12.101347"
     inkscape:cx="93.419352"
     inkscape:cy="62.307113"
     inkscape:window-width="3072"
     inkscape:window-height="1651"
     inkscape:window-x="0"
     inkscape:window-y="0"
     inkscape:window-maximized="1"
     inkscape:current-layer="g149" />
  <defs
     id="defs2" />
  <g
     inkscape:label="Layer 1"
     inkscape:groupmode="layer"
     id="layer1">
    <g
       id="g149"
       transform="matrix(0.03957305,0,0,0.03933926,2.6965755,2.9100464)">
      <path
         style="fill:#a85d5d"
         d="m 473.853,222.264 37.757,-57.073 c 0,0 4.779,-141.878 -85.273,-149.217 H 255.867 255.789 85.32 C -4.731,23.313 0.047,165.19 0.047,165.19 L 37.976,221.716 0,325.057 l 42.629,170.579 426.398,0.062 42.645,-170.595 z"
         id="path9" />
      <g
         style="opacity:0.2"
         id="g13">
        <path
           style="fill:#ffffff"
           d="M 0.593,165.987 C 3.186,126.403 16.771,42.878 85.32,37.273 h 170.469 0.078 170.469 c 68.551,5.606 82.15,89.162 84.728,128.73 l 0.546,-0.812 c 0,0 4.779,-141.878 -85.273,-149.217 H 255.867 255.789 85.32 C -4.731,23.313 0.047,165.19 0.047,165.19 Z"
           id="path11" />
      </g>
      <polygon
         style="fill:#723f3f"
         points="511.672,325.104 0,325.057 37.976,221.717 473.853,222.264 "
         id="polygon15" />
      <polygon
         style="fill:#8c4c4c"
         points="473.853,222.264 37.976,221.717 0.047,165.19 511.609,165.19 "
         id="polygon17" />
      <path
         d="m 266.485,410.315 c 0,5.887 -4.778,10.665 -10.649,10.665 -5.887,0 -10.665,-4.778 -10.665,-10.665 0,-5.888 4.778,-10.649 10.665,-10.649 5.871,0 10.649,4.762 10.649,10.649 z"
         id="path19" />
      <g
         id="g37" />
      <rect
         x="206.586"
         y="325.10599"
         style="fill:#ccd1d9"
         width="96.269997"
         height="98.75"
         id="rect39" />
      <g
         id="g45"
         style="fill:#ff8787;fill-opacity:1">
        <g
           id="g6963"
           style="fill:#ff8787;fill-opacity:1">
          <path
             style="fill:#ff8787;fill-opacity:1"
             d="m 170.251,295.045 c -12.258,0 -24.079,-2.701 -32.448,-7.401 -6.387,-3.591 -10.181,-8.042 -10.181,-11.914 0,-7.87 16.615,-19.315 42.629,-19.315 12.257,0 24.094,2.701 32.463,7.417 6.371,3.575 10.181,8.026 10.181,11.898 0,7.885 -16.615,19.315 -42.644,19.315 z"
             id="path21"
             transform="translate(-2.7901986e-6)" />
          <path
             style="fill:#ff8787;fill-opacity:1"
             d="m 255.524,295.045 c -12.258,0 -24.079,-2.701 -32.464,-7.401 -6.371,-3.591 -10.165,-8.042 -10.165,-11.914 0,-7.87 16.599,-19.315 42.629,-19.315 12.257,0 24.078,2.701 32.463,7.417 6.371,3.575 10.165,8.026 10.165,11.898 0,7.885 -16.597,19.315 -42.628,19.315 z"
             id="path23"
             transform="translate(-2.7901986e-6)" />
          <path
             style="fill:#ff8787;fill-opacity:1"
             d="m 340.797,295.045 c -12.258,0 -24.094,-2.701 -32.463,-7.401 -6.371,-3.591 -10.182,-8.042 -10.182,-11.914 0,-7.87 16.615,-19.315 42.645,-19.315 12.258,0 24.078,2.701 32.448,7.417 6.371,3.575 10.181,8.026 10.181,11.898 0,7.885 -16.613,19.315 -42.629,19.315 z"
             id="path25"
             transform="translate(-2.7901986e-6)" />
          <path
             style="fill:#ff8787;fill-opacity:1"
             d="m 212.895,265.065 c -12.258,0 -24.094,-2.686 -32.464,-7.401 -6.371,-3.592 -10.181,-8.026 -10.181,-11.899 0,-7.885 16.614,-19.332 42.645,-19.332 12.242,0 24.078,2.717 32.448,7.417 6.371,3.576 10.181,8.042 10.181,11.915 0,7.869 -16.615,19.3 -42.629,19.3 z"
             id="path27"
             transform="translate(-2.7901986e-6)" />
          <path
             style="fill:#ff8787;fill-opacity:1"
             d="m 298.152,265.065 c -12.242,0 -24.078,-2.686 -32.447,-7.401 -6.371,-3.592 -10.181,-8.026 -10.181,-11.899 0,-7.885 16.615,-19.332 42.628,-19.332 12.258,0 24.094,2.717 32.464,7.417 6.371,3.576 10.181,8.042 10.181,11.915 0,7.869 -16.613,19.3 -42.645,19.3 z"
             id="path29"
             transform="translate(-2.7901986e-6)" />
          <path
             style="fill:#ff8787;fill-opacity:1"
             d="m 255.524,235.099 c -12.258,0 -24.079,-2.702 -32.464,-7.417 -6.371,-3.575 -10.165,-8.026 -10.165,-11.898 0,-7.87 16.599,-19.315 42.629,-19.315 12.257,0 24.078,2.701 32.463,7.417 6.371,3.576 10.165,8.026 10.165,11.898 0,7.869 -16.597,19.315 -42.628,19.315 z"
             id="path31"
             transform="translate(-2.7901986e-6)" />
          <path
             style="fill:#ff8787;fill-opacity:1"
             d="m 91.629,325.104 h 72.516 c 4.153,-3.123 6.417,-6.511 6.417,-9.415 0,-3.873 -3.81,-8.308 -10.181,-11.899 -8.37,-4.715 -20.206,-7.401 -32.463,-7.401 -26.015,0 -42.629,11.431 -42.629,19.301 0,3.028 2.311,6.384 6.34,9.414 z"
             id="path33"
             transform="translate(-2.7901986e-6)" />
          <path
             style="fill:#ff8787;fill-opacity:1"
             d="m 176.902,325.104 h 72.516 c 4.153,-3.123 6.402,-6.511 6.402,-9.415 0,-3.873 -3.794,-8.308 -10.165,-11.899 -8.37,-4.715 -20.206,-7.401 -32.464,-7.401 -26.03,0 -42.629,11.431 -42.629,19.301 10e-4,3.028 2.312,6.384 6.34,9.414 z"
             id="path35"
             transform="translate(-2.7901986e-6)" />
          <path
             style="fill:#ff8787;fill-opacity:1"
             d="m 262.16,325.104 h 72.516 c 4.154,-3.123 6.418,-6.511 6.418,-9.415 0,-3.873 -3.795,-8.308 -10.165,-11.899 -8.386,-4.715 -20.206,-7.401 -32.464,-7.401 -26.029,0 -42.645,11.431 -42.645,19.301 0,3.028 2.327,6.384 6.34,9.414 z"
             id="path41" />
          <path
             style="fill:#ff8787;fill-opacity:1"
             d="m 347.434,325.104 h 72.516 c 4.154,-3.123 6.418,-6.511 6.418,-9.415 0,-3.873 -3.81,-8.308 -10.181,-11.899 -8.37,-4.715 -20.206,-7.401 -32.448,-7.401 -26.029,0 -42.645,11.431 -42.645,19.301 0,3.028 2.31,6.384 6.34,9.414 z"
             id="path43" />
        </g>
      </g>
      <path
         style="fill:#ff5d5d;fill-opacity:1;stroke-width:0.98844325;stroke-miterlimit:4;stroke-dasharray:none;stroke:none;stroke-opacity:1"
         d="m 434.331,325.104 c 1.733,-2.951 2.702,-6.121 2.702,-9.415 0,-15.179 -20.098,-27.732 -46.158,-29.7 2.076,-3.186 3.217,-6.652 3.217,-10.259 0,-14.507 -18.332,-26.593 -42.66,-29.372 0,-0.203 0.016,-0.406 0.016,-0.593 0,-14.522 -18.316,-26.608 -42.66,-29.387 0.016,-0.188 0.031,-0.391 0.031,-0.594 0,-16.552 -23.86,-29.98 -53.294,-29.98 -29.435,0 -53.294,13.429 -53.294,29.98 0,0.203 0.016,0.406 0.031,0.594 -24.344,2.779 -42.661,14.865 -42.661,29.387 0,0.188 0.016,0.39 0.016,0.593 -24.328,2.779 -42.66,14.865 -42.66,29.372 0,3.622 1.14,7.104 3.248,10.321 -25.78,2.093 -45.58,14.568 -45.58,29.638 0,3.294 0.968,6.464 2.701,9.415 z m -197.342,-5.106 c -6.605,2.811 -15.053,4.356 -23.797,4.356 -8.744,0 -17.192,-1.546 -23.782,-4.356 -3.654,-1.562 -5.934,-3.154 -7.198,-4.31 1.265,-1.124 3.544,-2.733 7.198,-4.278 6.59,-2.812 15.038,-4.373 23.782,-4.373 8.745,0 17.192,1.562 23.797,4.373 3.638,1.545 5.918,3.154 7.199,4.278 -1.281,1.156 -3.561,2.749 -7.199,4.31 z m -5.262,-39.974 c -3.638,-1.546 -5.918,-3.154 -7.199,-4.294 0.297,-0.266 0.656,-0.547 1.062,-0.858 9.322,-1.281 17.676,-3.936 24.344,-7.59 1.843,-0.125 3.716,-0.203 5.59,-0.203 1.874,0 3.748,0.078 5.574,0.203 6.684,3.654 15.038,6.309 24.359,7.59 0.406,0.312 0.766,0.593 1.062,0.858 -1.28,1.14 -3.561,2.748 -7.199,4.294 -6.604,2.811 -15.053,4.372 -23.796,4.372 -8.745,0 -17.192,-1.562 -23.797,-4.372 z m 90.519,39.974 c -6.589,2.811 -15.037,4.356 -23.781,4.356 -8.744,0 -17.191,-1.546 -23.797,-4.356 -3.639,-1.562 -5.918,-3.154 -7.199,-4.31 1.281,-1.124 3.561,-2.733 7.199,-4.278 6.605,-2.812 15.053,-4.373 23.797,-4.373 8.744,0 17.192,1.562 23.781,4.373 3.654,1.545 5.934,3.154 7.199,4.278 -1.265,1.156 -3.545,2.749 -7.199,4.31 z m 85.274,-8.588 c 3.654,1.545 5.935,3.154 7.199,4.278 -1.265,1.155 -3.545,2.748 -7.199,4.31 -6.589,2.811 -15.053,4.356 -23.781,4.356 -8.744,0 -17.191,-1.546 -23.797,-4.356 -3.654,-1.562 -5.934,-3.154 -7.199,-4.31 1.266,-1.124 3.545,-2.733 7.199,-4.278 6.605,-2.812 15.053,-4.373 23.797,-4.373 8.728,0 17.192,1.562 23.781,4.373 z m -66.723,-44.332 c 8.744,0 17.192,1.547 23.782,4.357 3.653,1.562 5.934,3.154 7.198,4.294 -1.265,1.14 -3.545,2.748 -7.198,4.294 -6.59,2.811 -15.038,4.372 -23.782,4.372 -8.744,0 -17.191,-1.562 -23.797,-4.372 -3.654,-1.546 -5.934,-3.154 -7.198,-4.294 0.296,-0.266 0.655,-0.547 1.062,-0.858 9.322,-1.281 17.676,-3.936 24.344,-7.59 1.842,-0.125 3.7,-0.203 5.589,-0.203 z m -42.645,-29.98 c 8.744,0 17.192,1.546 23.798,4.356 3.653,1.562 5.934,3.154 7.198,4.31 -0.297,0.25 -0.656,0.546 -1.062,0.859 -9.322,1.28 -17.677,3.95 -24.345,7.573 -1.842,0.141 -3.7,0.219 -5.59,0.219 -1.873,0 -3.731,-0.078 -5.574,-0.219 -6.684,-3.623 -15.037,-6.293 -24.359,-7.573 -0.406,-0.312 -0.75,-0.609 -1.047,-0.859 0.297,-0.281 0.641,-0.562 1.047,-0.875 9.322,-1.28 17.676,-3.935 24.359,-7.573 1.828,-0.14 3.702,-0.218 5.575,-0.218 z m -66.425,-25.609 c 6.605,-2.811 15.053,-4.356 23.797,-4.356 8.744,0 17.192,1.546 23.796,4.356 3.639,1.546 5.919,3.154 7.199,4.294 -0.297,0.266 -0.656,0.562 -1.062,0.875 -9.321,1.281 -17.676,3.935 -24.359,7.558 -1.826,0.156 -3.7,0.218 -5.574,0.218 -1.874,0 -3.748,-0.062 -5.59,-0.218 -6.667,-3.623 -15.021,-6.277 -24.344,-7.558 -0.406,-0.312 -0.765,-0.609 -1.062,-0.875 1.281,-1.139 3.56,-2.748 7.199,-4.294 z m -42.629,29.965 c 6.605,-2.811 15.053,-4.356 23.797,-4.356 1.874,0 3.732,0.078 5.574,0.219 6.684,3.639 15.038,6.293 24.359,7.573 0.406,0.312 0.75,0.594 1.046,0.875 -0.297,0.25 -0.64,0.546 -1.046,0.859 -9.322,1.28 -17.691,3.95 -24.359,7.573 -1.842,0.141 -3.701,0.219 -5.574,0.219 -1.89,0 -3.748,-0.078 -5.59,-0.219 -6.667,-3.623 -15.021,-6.293 -24.344,-7.573 -0.406,-0.312 -0.765,-0.609 -1.062,-0.859 1.265,-1.157 3.545,-2.749 7.199,-4.311 z m -42.629,29.982 c 6.589,-2.811 15.037,-4.357 23.782,-4.357 1.889,0 3.748,0.078 5.59,0.203 6.667,3.654 15.021,6.309 24.344,7.59 0.406,0.312 0.765,0.593 1.062,0.858 -1.28,1.14 -3.544,2.748 -7.199,4.294 -6.605,2.811 -15.053,4.372 -23.797,4.372 -8.745,0 -17.192,-1.562 -23.782,-4.372 -3.654,-1.546 -5.934,-3.154 -7.199,-4.294 1.265,-1.14 3.545,-2.733 7.199,-4.294 z m -42.333,39.974 c 6.59,-2.812 15.053,-4.373 23.782,-4.373 8.745,0 17.192,1.562 23.797,4.373 3.654,1.545 5.934,3.154 7.198,4.278 -1.265,1.155 -3.544,2.748 -7.198,4.31 -6.605,2.811 -15.053,4.356 -23.797,4.356 -8.744,0 -17.192,-1.546 -23.782,-4.356 -3.654,-1.562 -5.934,-3.154 -7.198,-4.31 1.265,-1.123 3.544,-2.733 7.198,-4.278 z"
         id="path47" />
      <rect
         x="244.856"
         y="383.616"
         style="fill:#aab2bc"
         width="21.330999"
         height="26.702"
         id="rect49" />
      <path
         style="fill:#434a54"
         d="m 270.936,369.982 c 0,8.448 -6.855,15.287 -15.287,15.287 -8.448,0 -15.303,-6.839 -15.303,-15.287 0,-8.447 6.855,-15.287 15.303,-15.287 8.431,-10e-4 15.287,6.839 15.287,15.287 z"
         id="path51" />
      <path
         style="fill:#ccd1d9"
         d="m 319.467,165.19 c 0,0 0.016,-0.016 0.016,-0.031 V 122.53 c 0,-5.871 -4.777,-10.649 -10.664,-10.649 H 202.23 c -5.887,0 -10.665,4.778 -10.665,10.649 v 42.629 c 0,0.016 0,0.031 0,0.031 z"
         id="path53" />
      <g
         id="g65">
        <path
           style="fill:#aab2bc"
           d="m 212.895,165.19 v -31.995 h 85.257 v 31.995 h 21.314 c 0,-21.798 0.016,-42.66 0.016,-42.66 0,-5.871 -4.777,-10.649 -10.664,-10.649 H 202.23 c -5.887,0 -10.665,4.778 -10.665,10.649 0,0 0,20.862 0,42.66 z"
           id="path55" />
        <polygon
           style="fill:#aab2bc"
           points="55.152,325.057 92.894,495.651 114.723,495.651 76.998,325.057 "
           id="polygon57" />
        <polygon
           style="fill:#aab2bc"
           points="434.159,325.088 396.387,495.698 418.217,495.698 455.989,325.088 "
           id="polygon59" />
        <path
           style="fill:#aab2bc"
           d="m 298.152,325.088 v 95.893 h -85.257 v -95.908 h -21.33 v 106.573 c 0,5.871 4.778,10.649 10.665,10.649 h 106.588 c 5.887,0 10.664,-4.778 10.664,-10.649 V 325.088 Z"
           id="path61" />
        <path
           style="fill:#aab2bc"
           d="m 255.836,335.707 c -17.661,0 -31.979,14.318 -31.979,31.979 0,17.66 14.319,31.979 31.979,31.979 17.645,0 31.964,-14.319 31.964,-31.979 0,-17.661 -14.319,-31.979 -31.964,-31.979 z m 0,42.629 c -5.887,0 -10.665,-4.778 -10.665,-10.649 0,-5.872 4.778,-10.665 10.665,-10.665 5.871,0 10.649,4.793 10.649,10.665 0,5.871 -4.778,10.649 -10.649,10.649 z"
           id="path63" />
      </g>
      <polygon
         style="opacity:0.1;enable-background:new"
         points="503.803,303.727 511.672,325.057 0,325.057 7.823,303.727 "
         id="polygon67"
         transform="translate(0,0.047)" />
      <g
         id="g69" />
      <g
         id="g71" />
      <g
         id="g73" />
      <g
         id="g75" />
      <g
         id="g77" />
      <g
         id="g79" />
      <g
         id="g81" />
      <g
         id="g83" />
      <g
         id="g85" />
      <g
         id="g87" />
      <g
         id="g89" />
      <g
         id="g91" />
      <g
         id="g93" />
      <g
         id="g95" />
      <g
         id="g97" />
    </g>
  </g>
  <g
     inkscape:label="Layer 1 copy"
     inkscape:groupmode="layer"
     id="g6368"
     style="display:none">
    <g
       id="g6366"
       transform="matrix(0.03957305,0,0,0.03933926,2.6965755,2.9100464)">
      <path
         style="fill:#a85d5d"
         d="m 473.853,222.264 37.757,-57.073 c 0,0 4.779,-141.878 -85.273,-149.217 H 255.867 255.789 85.32 C -4.731,23.313 0.047,165.19 0.047,165.19 L 37.976,221.716 0,325.057 l 42.629,170.579 426.398,0.062 42.645,-170.595 z"
         id="path6276" />
      <g
         style="opacity:0.2"
         id="g6280">
        <path
           style="fill:#ffffff"
           d="M 0.593,165.987 C 3.186,126.403 16.771,42.878 85.32,37.273 h 170.469 0.078 170.469 c 68.551,5.606 82.15,89.162 84.728,128.73 l 0.546,-0.812 c 0,0 4.779,-141.878 -85.273,-149.217 H 255.867 255.789 85.32 C -4.731,23.313 0.047,165.19 0.047,165.19 Z"
           id="path6278" />
      </g>
      <polygon
         style="fill:#723f3f"
         points="37.976,221.717 473.853,222.264 511.672,325.104 0,325.057 "
         id="polygon6282" />
      <polygon
         style="fill:#8c4c4c"
         points="0.047,165.19 511.609,165.19 473.853,222.264 37.976,221.717 "
         id="polygon6284" />
      <path
         d="m 266.485,410.315 c 0,5.887 -4.778,10.665 -10.649,10.665 -5.887,0 -10.665,-4.778 -10.665,-10.665 0,-5.888 4.778,-10.649 10.665,-10.649 5.871,0 10.649,4.762 10.649,10.649 z"
         id="path6286" />
      <g
         id="g6304">
        <path
           style="fill:#88c641;fill-opacity:1"
           d="m 170.251,295.045 c -12.258,0 -24.079,-2.701 -32.448,-7.401 -6.387,-3.591 -10.181,-8.042 -10.181,-11.914 0,-7.87 16.615,-19.315 42.629,-19.315 12.257,0 24.094,2.701 32.463,7.417 6.371,3.575 10.181,8.026 10.181,11.898 0,7.885 -16.615,19.315 -42.644,19.315 z"
           id="path6288" />
        <path
           style="fill:#88c641;fill-opacity:1"
           d="m 255.524,295.045 c -12.258,0 -24.079,-2.701 -32.464,-7.401 -6.371,-3.591 -10.165,-8.042 -10.165,-11.914 0,-7.87 16.599,-19.315 42.629,-19.315 12.257,0 24.078,2.701 32.463,7.417 6.371,3.575 10.165,8.026 10.165,11.898 0,7.885 -16.597,19.315 -42.628,19.315 z"
           id="path6290" />
        <path
           style="fill:#88c641;fill-opacity:1"
           d="m 340.797,295.045 c -12.258,0 -24.094,-2.701 -32.463,-7.401 -6.371,-3.591 -10.182,-8.042 -10.182,-11.914 0,-7.87 16.615,-19.315 42.645,-19.315 12.258,0 24.078,2.701 32.448,7.417 6.371,3.575 10.181,8.026 10.181,11.898 0,7.885 -16.613,19.315 -42.629,19.315 z"
           id="path6292" />
        <path
           style="fill:#88c641;fill-opacity:1"
           d="m 212.895,265.065 c -12.258,0 -24.094,-2.686 -32.464,-7.401 -6.371,-3.592 -10.181,-8.026 -10.181,-11.899 0,-7.885 16.614,-19.332 42.645,-19.332 12.242,0 24.078,2.717 32.448,7.417 6.371,3.576 10.181,8.042 10.181,11.915 0,7.869 -16.615,19.3 -42.629,19.3 z"
           id="path6294" />
        <path
           style="fill:#88c641;fill-opacity:1"
           d="m 298.152,265.065 c -12.242,0 -24.078,-2.686 -32.447,-7.401 -6.371,-3.592 -10.181,-8.026 -10.181,-11.899 0,-7.885 16.615,-19.332 42.628,-19.332 12.258,0 24.094,2.717 32.464,7.417 6.371,3.576 10.181,8.042 10.181,11.915 0,7.869 -16.613,19.3 -42.645,19.3 z"
           id="path6296" />
        <path
           style="fill:#88c641;fill-opacity:1"
           d="m 255.524,235.099 c -12.258,0 -24.079,-2.702 -32.464,-7.417 -6.371,-3.575 -10.165,-8.026 -10.165,-11.898 0,-7.87 16.599,-19.315 42.629,-19.315 12.257,0 24.078,2.701 32.463,7.417 6.371,3.576 10.165,8.026 10.165,11.898 0,7.869 -16.597,19.315 -42.628,19.315 z"
           id="path6298" />
        <path
           style="fill:#ffce54"
           d="m 91.629,325.104 h 72.516 c 4.153,-3.123 6.417,-6.511 6.417,-9.415 0,-3.873 -3.81,-8.308 -10.181,-11.899 -8.37,-4.715 -20.206,-7.401 -32.463,-7.401 -26.015,0 -42.629,11.431 -42.629,19.301 0,3.028 2.311,6.384 6.34,9.414 z"
           id="path6300" />
        <path
           style="fill:#ffce54"
           d="m 176.902,325.104 h 72.516 c 4.153,-3.123 6.402,-6.511 6.402,-9.415 0,-3.873 -3.794,-8.308 -10.165,-11.899 -8.37,-4.715 -20.206,-7.401 -32.464,-7.401 -26.03,0 -42.629,11.431 -42.629,19.301 10e-4,3.028 2.312,6.384 6.34,9.414 z"
           id="path6302" />
      </g>
      <rect
         x="206.586"
         y="325.10599"
         style="fill:#ccd1d9"
         width="96.269997"
         height="98.75"
         id="rect6306" />
      <g
         id="g6312">
        <path
           style="fill:#ffce54"
           d="m 262.16,325.104 h 72.516 c 4.154,-3.123 6.418,-6.511 6.418,-9.415 0,-3.873 -3.795,-8.308 -10.165,-11.899 -8.386,-4.715 -20.206,-7.401 -32.464,-7.401 -26.029,0 -42.645,11.431 -42.645,19.301 0,3.028 2.327,6.384 6.34,9.414 z"
           id="path6308" />
        <path
           style="fill:#ffce54"
           d="m 347.434,325.104 h 72.516 c 4.154,-3.123 6.418,-6.511 6.418,-9.415 0,-3.873 -3.81,-8.308 -10.181,-11.899 -8.37,-4.715 -20.206,-7.401 -32.448,-7.401 -26.029,0 -42.645,11.431 -42.645,19.301 0,3.028 2.31,6.384 6.34,9.414 z"
           id="path6310" />
      </g>
      <path
         style="fill:#5abb42;fill-opacity:1;stroke:none;stroke-width:0.988443;stroke-miterlimit:4;stroke-dasharray:none;stroke-opacity:1"
         d="m 434.331,325.104 c 1.733,-2.951 2.702,-6.121 2.702,-9.415 0,-15.179 -20.098,-27.732 -46.158,-29.7 2.076,-3.186 3.217,-6.652 3.217,-10.259 0,-14.507 -18.332,-26.593 -42.66,-29.372 0,-0.203 0.016,-0.406 0.016,-0.593 0,-14.522 -18.316,-26.608 -42.66,-29.387 0.016,-0.188 0.031,-0.391 0.031,-0.594 0,-16.552 -23.86,-29.98 -53.294,-29.98 -29.435,0 -53.294,13.429 -53.294,29.98 0,0.203 0.016,0.406 0.031,0.594 -24.344,2.779 -42.661,14.865 -42.661,29.387 0,0.188 0.016,0.39 0.016,0.593 -24.328,2.779 -42.66,14.865 -42.66,29.372 0,3.622 1.14,7.104 3.248,10.321 -25.78,2.093 -45.58,14.568 -45.58,29.638 0,3.294 0.968,6.464 2.701,9.415 z m -197.342,-5.106 c -6.605,2.811 -15.053,4.356 -23.797,4.356 -8.744,0 -17.192,-1.546 -23.782,-4.356 -3.654,-1.562 -5.934,-3.154 -7.198,-4.31 1.265,-1.124 3.544,-2.733 7.198,-4.278 6.59,-2.812 15.038,-4.373 23.782,-4.373 8.745,0 17.192,1.562 23.797,4.373 3.638,1.545 5.918,3.154 7.199,4.278 -1.281,1.156 -3.561,2.749 -7.199,4.31 z m -5.262,-39.974 c -3.638,-1.546 -5.918,-3.154 -7.199,-4.294 0.297,-0.266 0.656,-0.547 1.062,-0.858 9.322,-1.281 17.676,-3.936 24.344,-7.59 1.843,-0.125 3.716,-0.203 5.59,-0.203 1.874,0 3.748,0.078 5.574,0.203 6.684,3.654 15.038,6.309 24.359,7.59 0.406,0.312 0.766,0.593 1.062,0.858 -1.28,1.14 -3.561,2.748 -7.199,4.294 -6.604,2.811 -15.053,4.372 -23.796,4.372 -8.745,0 -17.192,-1.562 -23.797,-4.372 z m 90.519,39.974 c -6.589,2.811 -15.037,4.356 -23.781,4.356 -8.744,0 -17.191,-1.546 -23.797,-4.356 -3.639,-1.562 -5.918,-3.154 -7.199,-4.31 1.281,-1.124 3.561,-2.733 7.199,-4.278 6.605,-2.812 15.053,-4.373 23.797,-4.373 8.744,0 17.192,1.562 23.781,4.373 3.654,1.545 5.934,3.154 7.199,4.278 -1.265,1.156 -3.545,2.749 -7.199,4.31 z m 85.274,-8.588 c 3.654,1.545 5.935,3.154 7.199,4.278 -1.265,1.155 -3.545,2.748 -7.199,4.31 -6.589,2.811 -15.053,4.356 -23.781,4.356 -8.744,0 -17.191,-1.546 -23.797,-4.356 -3.654,-1.562 -5.934,-3.154 -7.199,-4.31 1.266,-1.124 3.545,-2.733 7.199,-4.278 6.605,-2.812 15.053,-4.373 23.797,-4.373 8.728,0 17.192,1.562 23.781,4.373 z m -66.723,-44.332 c 8.744,0 17.192,1.547 23.782,4.357 3.653,1.562 5.934,3.154 7.198,4.294 -1.265,1.14 -3.545,2.748 -7.198,4.294 -6.59,2.811 -15.038,4.372 -23.782,4.372 -8.744,0 -17.191,-1.562 -23.797,-4.372 -3.654,-1.546 -5.934,-3.154 -7.198,-4.294 0.296,-0.266 0.655,-0.547 1.062,-0.858 9.322,-1.281 17.676,-3.936 24.344,-7.59 1.842,-0.125 3.7,-0.203 5.589,-0.203 z m -42.645,-29.98 c 8.744,0 17.192,1.546 23.798,4.356 3.653,1.562 5.934,3.154 7.198,4.31 -0.297,0.25 -0.656,0.546 -1.062,0.859 -9.322,1.28 -17.677,3.95 -24.345,7.573 -1.842,0.141 -3.7,0.219 -5.59,0.219 -1.873,0 -3.731,-0.078 -5.574,-0.219 -6.684,-3.623 -15.037,-6.293 -24.359,-7.573 -0.406,-0.312 -0.75,-0.609 -1.047,-0.859 0.297,-0.281 0.641,-0.562 1.047,-0.875 9.322,-1.28 17.676,-3.935 24.359,-7.573 1.828,-0.14 3.702,-0.218 5.575,-0.218 z m -66.425,-25.609 c 6.605,-2.811 15.053,-4.356 23.797,-4.356 8.744,0 17.192,1.546 23.796,4.356 3.639,1.546 5.919,3.154 7.199,4.294 -0.297,0.266 -0.656,0.562 -1.062,0.875 -9.321,1.281 -17.676,3.935 -24.359,7.558 -1.826,0.156 -3.7,0.218 -5.574,0.218 -1.874,0 -3.748,-0.062 -5.59,-0.218 -6.667,-3.623 -15.021,-6.277 -24.344,-7.558 -0.406,-0.312 -0.765,-0.609 -1.062,-0.875 1.281,-1.139 3.56,-2.748 7.199,-4.294 z m -42.629,29.965 c 6.605,-2.811 15.053,-4.356 23.797,-4.356 1.874,0 3.732,0.078 5.574,0.219 6.684,3.639 15.038,6.293 24.359,7.573 0.406,0.312 0.75,0.594 1.046,0.875 -0.297,0.25 -0.64,0.546 -1.046,0.859 -9.322,1.28 -17.691,3.95 -24.359,7.573 -1.842,0.141 -3.701,0.219 -5.574,0.219 -1.89,0 -3.748,-0.078 -5.59,-0.219 -6.667,-3.623 -15.021,-6.293 -24.344,-7.573 -0.406,-0.312 -0.765,-0.609 -1.062,-0.859 1.265,-1.157 3.545,-2.749 7.199,-4.311 z m -42.629,29.982 c 6.589,-2.811 15.037,-4.357 23.782,-4.357 1.889,0 3.748,0.078 5.59,0.203 6.667,3.654 15.021,6.309 24.344,7.59 0.406,0.312 0.765,0.593 1.062,0.858 -1.28,1.14 -3.544,2.748 -7.199,4.294 -6.605,2.811 -15.053,4.372 -23.797,4.372 -8.745,0 -17.192,-1.562 -23.782,-4.372 -3.654,-1.546 -5.934,-3.154 -7.199,-4.294 1.265,-1.14 3.545,-2.733 7.199,-4.294 z m -42.333,39.974 c 6.59,-2.812 15.053,-4.373 23.782,-4.373 8.745,0 17.192,1.562 23.797,4.373 3.654,1.545 5.934,3.154 7.198,4.278 -1.265,1.155 -3.544,2.748 -7.198,4.31 -6.605,2.811 -15.053,4.356 -23.797,4.356 -8.744,0 -17.192,-1.546 -23.782,-4.356 -3.654,-1.562 -5.934,-3.154 -7.198,-4.31 1.265,-1.123 3.544,-2.733 7.198,-4.278 z"
         id="path6314" />
      <rect
         x="244.856"
         y="383.616"
         style="fill:#aab2bc"
         width="21.330999"
         height="26.702"
         id="rect6316" />
      <path
         style="fill:#434a54"
         d="m 270.936,369.982 c 0,8.448 -6.855,15.287 -15.287,15.287 -8.448,0 -15.303,-6.839 -15.303,-15.287 0,-8.447 6.855,-15.287 15.303,-15.287 8.431,-10e-4 15.287,6.839 15.287,15.287 z"
         id="path6318" />
      <path
         style="fill:#ccd1d9"
         d="m 319.467,165.19 c 0,0 0.016,-0.016 0.016,-0.031 V 122.53 c 0,-5.871 -4.777,-10.649 -10.664,-10.649 H 202.23 c -5.887,0 -10.665,4.778 -10.665,10.649 v 42.629 c 0,0.016 0,0.031 0,0.031 z"
         id="path6320" />
      <g
         id="g6332">
        <path
           style="fill:#aab2bc"
           d="m 212.895,165.19 v -31.995 h 85.257 v 31.995 h 21.314 c 0,-21.798 0.016,-42.66 0.016,-42.66 0,-5.871 -4.777,-10.649 -10.664,-10.649 H 202.23 c -5.887,0 -10.665,4.778 -10.665,10.649 0,0 0,20.862 0,42.66 z"
           id="path6322" />
        <polygon
           style="fill:#aab2bc"
           points="114.723,495.651 76.998,325.057 55.152,325.057 92.894,495.651 "
           id="polygon6324" />
        <polygon
           style="fill:#aab2bc"
           points="418.217,495.698 455.989,325.088 434.159,325.088 396.387,495.698 "
           id="polygon6326" />
        <path
           style="fill:#aab2bc"
           d="m 298.152,325.088 v 95.893 h -85.257 v -95.908 h -21.33 v 106.573 c 0,5.871 4.778,10.649 10.665,10.649 h 106.588 c 5.887,0 10.664,-4.778 10.664,-10.649 V 325.088 Z"
           id="path6328" />
        <path
           style="fill:#aab2bc"
           d="m 255.836,335.707 c -17.661,0 -31.979,14.318 -31.979,31.979 0,17.66 14.319,31.979 31.979,31.979 17.645,0 31.964,-14.319 31.964,-31.979 0,-17.661 -14.319,-31.979 -31.964,-31.979 z m 0,42.629 c -5.887,0 -10.665,-4.778 -10.665,-10.649 0,-5.872 4.778,-10.665 10.665,-10.665 5.871,0 10.649,4.793 10.649,10.665 0,5.871 -4.778,10.649 -10.649,10.649 z"
           id="path6330" />
      </g>
      <polygon
         style="opacity:0.1;enable-background:new"
         points="503.803,303.727 511.672,325.057 0,325.057 7.823,303.727 "
         id="polygon6334" />
      <g
         id="g6336" />
      <g
         id="g6338" />
      <g
         id="g6340" />
      <g
         id="g6342" />
      <g
         id="g6344" />
      <g
         id="g6346" />
      <g
         id="g6348" />
      <g
         id="g6350" />
      <g
         id="g6352" />
      <g
         id="g6354" />
      <g
         id="g6356" />
      <g
         id="g6358" />
      <g
         id="g6360" />
      <g
         id="g6362" />
      <g
         id="g6364" />
    </g>
  </g>
</svg>
